<svg width="24" height="24" fill="none" xmlns="http://www.w3.org/2000/svg"><path fill-rule="evenodd" clip-rule="evenodd" d="M22.5 12h-7c-.825 0-1.5.675-1.5 1.5s.675 1.5 1.5 1.5h7c.825 0 1.5-.675 1.5-1.5s-.675-1.5-1.5-1.5z" fill="#A3DAF5"/><path fill-rule="evenodd" clip-rule="evenodd" d="M22.5 7h-7c-.825 0-1.5.675-1.5 1.5s.675 1.5 1.5 1.5h7c.825 0 1.5-.675 1.5-1.5S23.325 7 22.5 7z" fill="#55C1F6"/><path fill-rule="evenodd" clip-rule="evenodd" d="M15.5 5h7c.825 0 1.5-.675 1.5-1.5S23.325 2 22.5 2h-7c-.825 0-1.5.675-1.5 1.5S14.675 5 15.5 5z" fill="#F04247"/><path fill-rule="evenodd" clip-rule="evenodd" d="M6 0c2.75 0 5 2.25 5 5v9.686a6 6 0 11-10 0V5c0-2.75 2.25-5 5-5zm0 2C4.346 2 3 3.346 3 5v10.29l-.334.503A3.974 3.974 0 002 18c0 2.206 1.794 4 4 4s4-1.794 4-4c0-.788-.23-1.551-.666-2.207L9 15.29V5c0-1.654-1.346-3-3-3z" fill="url(#paint0_linear)"/><path fill-rule="evenodd" clip-rule="evenodd" d="M7 16.277V9c0-.55-.45-1-1-1s-1 .45-1 1v7.277A1.994 1.994 0 006 20a1.994 1.994 0 001-3.723z" fill="#F04247"/><defs><linearGradient id="paint0_linear" x1="0" y1="0" x2="19.2" y2="9.6" gradientUnits="userSpaceOnUse"><stop stop-color="#A3DAF5"/><stop offset="1" stop-color="#55C1F6"/></linearGradient></defs></svg>