<svg width="24" height="24" fill="none" xmlns="http://www.w3.org/2000/svg"><path d="M12 24c6.627 0 12-5.373 12-12S18.627 0 12 0 0 5.373 0 12s5.373 12 12 12z" fill="url(#paint0_linear)"/><path fill-rule="evenodd" clip-rule="evenodd" d="M4.2 13.8a.994.994 0 01-.74 1.2.983.983 0 01-1.2-.75c-.13-.53.21-1.07.75-1.2.53-.12 1.07.22 1.19.75zm16.8-.78c.54.12.88.65.75 1.19-.1.47-.52.78-.97.78-.07 0-.15-.01-.22-.02-.54-.12-.88-.66-.76-1.2.12-.54.66-.88 1.2-.75zM5.56 5.63c.44.34.51.97.17 1.41a1.025 1.025 0 01-1.41.16c-.43-.35-.5-.98-.16-1.41a1 1 0 011.4-.16zm14.25.13c.35.43.28 1.06-.15 1.41-.19.14-.41.21-.63.21-.29 0-.58-.12-.78-.37-.34-.43-.27-1.06.16-1.41a1 1 0 011.4.16zM12.02 2A.999.999 0 0112 4h-.03a.999.999 0 01-1.01-1c0-.55.45-1 1-1h.06z" fill="#fff"/><path fill-rule="evenodd" clip-rule="evenodd" d="M12 18a2.5 2.5 0 01-1-4.789V9a1 1 0 012 0v4.211A2.498 2.498 0 0112 18z" fill="#F04247"/><defs><linearGradient id="paint0_linear" x1="0" y1="0" x2="24" y2="24" gradientUnits="userSpaceOnUse"><stop stop-color="#247CA8"/><stop offset="1" stop-color="#0D4873"/></linearGradient></defs></svg>