<svg id="Calque_1" width="24" height="24" viewBox="0 0 24 24" fill="none" xmlns="http://www.w3.org/2000/svg"><defs><style>.cls-1{fill:url(#Dégradé_sans_nom_2);}.cls-1,.cls-2{fill-rule:evenodd;}.cls-2{fill:url(#Dégradé_sans_nom_3);}.cls-3{fill:url(#Dégradé_sans_nom);}</style><radialGradient id="Dégradé_sans_nom" cx="-355.3" cy="8.7" fx="-355.3" fy="8.7" r="1" gradientTransform="translate(7120 -172) scale(20)" gradientUnits="userSpaceOnUse"><stop offset="0" stop-color="#fff2cb"/><stop offset="1" stop-color="#ffd24d"/></radialGradient><linearGradient id="Dégradé_sans_nom_2" x1="17.45" y1="200.18" x2="12.95" y2="186.68" gradientTransform="translate(0 -174)" gradientUnits="userSpaceOnUse"><stop offset="0" stop-color="#ceecf2"/><stop offset=".72" stop-color="#cacdce"/><stop offset="1" stop-color="#cacdce"/></linearGradient><linearGradient id="Dégradé_sans_nom_3" x1="7.74" y1="185.47" x2="5.06" y2="176.53" gradientTransform="translate(0 -174)" gradientUnits="userSpaceOnUse"><stop offset="0" stop-color="#ceecf2"/><stop offset=".72" stop-color="#cacdce"/><stop offset="1" stop-color="#cacdce"/></linearGradient></defs><path class="cls-3" d="M14,22c5.5,0,10-4.5,10-10S19.5,2,14,2,4,6.5,4,12s4.5,10,10,10Z"/><path class="cls-1" d="M10,24c-2.2,0-4-1.8-4-4s1.8-4,4-4c.8,0,1.5,.2,2.2,.6,.6-2.7,3-4.6,5.8-4.6,3.3,0,6,2.7,6,6s-2.7,6-6,6H10Z"/><path class="cls-2" d="M2,9.8c-1.1,0-2-.8-2-1.9s.9-2,2-2c.2,0,.4,0,.7,.1v-.1c0-2.2,1.7-3.9,3.9-3.9,1.7,0,3.1,1.1,3.7,2.6h.2c1.4,0,2.6,1.2,2.6,2.6s-1.2,2.6-2.6,2.6H2Z"/></svg>