<svg width="24" height="24" fill="none" xmlns="http://www.w3.org/2000/svg"><g clip-path="url(#clip0)"><path fill-rule="evenodd" clip-rule="evenodd" d="M18 15a4 4 0 11-3.771 5.333 1 1 0 011.84-.774l.045.108a2 2 0 102.035-2.662L18 17H5a1 1 0 01-.116-1.993L5 15h13zm2-10a4 4 0 01.2 7.995L20 13H1a1 1 0 01-.116-1.993L1 11h19a2 2 0 10-1.828-2.812l-.058.145a1 1 0 11-1.886-.666A4 4 0 0120 5zM10 1a4 4 0 01.2 7.995L10 9H3a1 1 0 01-.116-1.993L3 7h7a2 2 0 10-1.828-2.812l-.058.145a1 1 0 11-1.886-.666A4 4 0 0110 1z" fill="#6BB0C7"/></g><defs><clipPath id="clip0"><path fill="#fff" d="M0 0h24v24H0z"/></clipPath></defs></svg>