<svg width="24" height="24" fill="none" xmlns="http://www.w3.org/2000/svg"><path d="M6 12A6 6 0 106 0a6 6 0 000 12z" fill="url(#paint0_radial)"/><path fill-rule="evenodd" clip-rule="evenodd" d="M7 22c1.105 0 2-.965 2-2 0-.69-.5-1.69-1.5-3-1.667.958-2.5 1.958-2.5 3 0 1.035.895 2 2 2z" fill="url(#paint1_linear)"/><path fill-rule="evenodd" clip-rule="evenodd" d="M16 24a3 3 0 003-3c0-1.105-.667-2.771-2-5-2.667 1.667-4 3.333-4 5a3 3 0 003 3z" fill="url(#paint2_linear)"/><path fill-rule="evenodd" clip-rule="evenodd" d="M7 14a4 4 0 112.157-7.369A6.001 6.001 0 1115 14H7z" fill="url(#paint3_linear)"/><defs><linearGradient id="paint1_linear" x1="5" y1="17" x2="9.878" y2="20.902" gradientUnits="userSpaceOnUse"><stop stop-color="#A3DAF5"/><stop offset="1" stop-color="#55C1F6"/></linearGradient><linearGradient id="paint2_linear" x1="13" y1="16" x2="20.68" y2="21.76" gradientUnits="userSpaceOnUse"><stop stop-color="#A3DAF5"/><stop offset="1" stop-color="#55C1F6"/></linearGradient><linearGradient id="paint3_linear" x1="21" y1="14" x2="16.5" y2=".5" gradientUnits="userSpaceOnUse"><stop stop-color="#CEECF2"/><stop offset=".717" stop-color="#CACDCE"/><stop offset="1" stop-color="#CACDCE"/></linearGradient><radialGradient id="paint0_radial" cx="0" cy="0" r="1" gradientUnits="userSpaceOnUse" gradientTransform="matrix(12 0 0 12 6 0)"><stop stop-color="#FFF2CB"/><stop offset="1" stop-color="#FFD24D"/></radialGradient></defs></svg>