<svg width="24" height="24" fill="none" xmlns="http://www.w3.org/2000/svg"><g clip-path="url(#clip0)" fill-rule="evenodd" clip-rule="evenodd"><path d="M18 15a4 4 0 11-3.771 5.333 1 1 0 011.84-.774l.045.108a2 2 0 102.035-2.662L18 17H5a1 1 0 01-.116-1.993L5 15h13zm2-10a4 4 0 01.2 7.995L20 13H1a1 1 0 01-.116-1.993L1 11h19a2 2 0 10-1.828-2.812l-.058.145a1 1 0 11-1.886-.666A4 4 0 0120 5z" fill="#6BB0C7"/><path d="M8 1a1 1 0 01.993.883L9 2v1.233l.986-.59a1 1 0 011.125 1.649l-.096.065L9.943 5l1.072.643a1 1 0 01-.926 1.769l-.103-.055L9 6.766V8a1 1 0 01-1.993.117L7 8V6.765l-.985.592a1 1 0 01-1.126-1.649l.097-.065L6.056 5l-1.07-.643a1 1 0 01.925-1.769l.104.055.985.591V2a1 1 0 011-1z" fill="#A3DAF5"/></g><defs><clipPath id="clip0"><path fill="#fff" d="M0 0h24v24H0z"/></clipPath></defs></svg>