<svg width="24" height="24" fill="none" xmlns="http://www.w3.org/2000/svg"><path fill-rule="evenodd" clip-rule="evenodd" d="M12 16a1 1 0 01.993.883L13 17v1.233l.986-.59a1 1 0 011.125 1.649l-.096.066-1.072.642 1.072.642a1 1 0 01-.926 1.77l-.103-.054-.986-.592V23a1 1 0 01-1.993.117L11 23v-1.235l-.985.593a1 1 0 01-1.126-1.65l.097-.066 1.07-.642-1.07-.642a1 1 0 01.925-1.77l.104.054.985.592V17a1 1 0 011-1z" fill="#A3DAF5"/><path fill-rule="evenodd" clip-rule="evenodd" d="M6 14a5 5 0 113.238-8.81A7 7 0 1116 14H6z" fill="url(#paint0_linear)"/><defs><linearGradient id="paint0_linear" x1="23" y1="14" x2="17.944" y2="-1.891" gradientUnits="userSpaceOnUse"><stop stop-color="#CEECF2"/><stop offset=".717" stop-color="#CACDCE"/><stop offset="1" stop-color="#CACDCE"/></linearGradient></defs></svg>