<svg width="24" height="24" fill="none" xmlns="http://www.w3.org/2000/svg"><path fill-rule="evenodd" clip-rule="evenodd" d="M19 22a1 1 0 110 2 1 1 0 010-2zM5 22a1 1 0 110 2 1 1 0 010-2zm7-2a1 1 0 110 2 1 1 0 010-2zm5-4a1 1 0 110 2 1 1 0 010-2zM7 16a1 1 0 110 2 1 1 0 010-2z" fill="#CACDCE"/><path fill-rule="evenodd" clip-rule="evenodd" d="M6 14a5 5 0 113.238-8.81A7 7 0 1116 14H6z" fill="url(#paint0_linear)"/><defs><linearGradient id="paint0_linear" x1="23" y1="14" x2="17.944" y2="-1.891" gradientUnits="userSpaceOnUse"><stop stop-color="#CEECF2"/><stop offset=".717" stop-color="#CACDCE"/><stop offset="1" stop-color="#CACDCE"/></linearGradient></defs></svg>