<svg width="24" height="24" fill="none" xmlns="http://www.w3.org/2000/svg"><path fill-rule="evenodd" clip-rule="evenodd" d="M20 22c1.105 0 2-.965 2-2 0-.69-.5-1.69-1.5-3-1.667.958-2.5 1.958-2.5 3 0 1.035.895 2 2 2z" fill="url(#paint0_linear)"/><path fill-rule="evenodd" clip-rule="evenodd" d="M12 24a3 3 0 003-3c0-1.105-.667-2.771-2-5-2.667 1.667-4 3.333-4 5a3 3 0 003 3z" fill="url(#paint1_linear)"/><path fill-rule="evenodd" clip-rule="evenodd" d="M4 22c1.105 0 2-.965 2-2 0-.69-.5-1.69-1.5-3-1.667.958-2.5 1.958-2.5 3 0 1.035.895 2 2 2z" fill="url(#paint2_linear)"/><path fill-rule="evenodd" clip-rule="evenodd" d="M6 14a5 5 0 113.238-8.81A7 7 0 1116 14H6z" fill="url(#paint3_linear)"/><defs><linearGradient id="paint0_linear" x1="18" y1="17" x2="22.878" y2="20.902" gradientUnits="userSpaceOnUse"><stop stop-color="#A3DAF5"/><stop offset="1" stop-color="#55C1F6"/></linearGradient><linearGradient id="paint1_linear" x1="9" y1="16" x2="16.68" y2="21.76" gradientUnits="userSpaceOnUse"><stop stop-color="#A3DAF5"/><stop offset="1" stop-color="#55C1F6"/></linearGradient><linearGradient id="paint2_linear" x1="2" y1="17" x2="6.878" y2="20.902" gradientUnits="userSpaceOnUse"><stop stop-color="#A3DAF5"/><stop offset="1" stop-color="#55C1F6"/></linearGradient><linearGradient id="paint3_linear" x1="23" y1="14" x2="17.944" y2="-1.891" gradientUnits="userSpaceOnUse"><stop stop-color="#CEECF2"/><stop offset=".717" stop-color="#CACDCE"/><stop offset="1" stop-color="#CACDCE"/></linearGradient></defs></svg>